<svg width="28" height="41" viewBox="0 0 28 41" fill="none" xmlns="http://www.w3.org/2000/svg">
<path d="M6.09458 13.4048H21.7426C23.3663 13.4048 24.7333 12.1341 24.7889 10.5113C24.7903 10.4712 24.791 10.431 24.791 10.3905C24.791 8.47952 23.2418 6.93038 21.3308 6.93038C21.3296 6.93038 21.3282 6.93045 21.3269 6.93045C21.3292 6.87937 21.3308 6.82812 21.3308 6.77648C21.3308 4.86546 19.7817 3.31631 17.8707 3.31631C17.2753 3.31631 16.7152 3.46681 16.2259 3.73158C15.4235 2.00584 13.714 0.787183 11.7098 0.688962C8.73024 0.542897 6.197 2.93751 6.18078 5.92065C6.17889 6.26893 6.21123 6.6093 6.27386 6.939C4.47134 7.05857 3.04596 8.55765 3.04596 10.3905C3.04596 10.431 3.04667 10.4712 3.04802 10.5113C3.10393 12.1341 4.47087 13.4048 6.09458 13.4048Z" fill="#DDEBFD"/>
<path d="M21.3309 6.93037C21.3296 6.93037 21.3283 6.93045 21.327 6.93045C21.3293 6.87937 21.3309 6.82812 21.3309 6.77648C21.3309 4.86546 19.7818 3.31631 17.8707 3.31631C17.2754 3.31631 16.7153 3.46681 16.2261 3.73157C15.4236 2.00584 13.7142 0.78718 11.71 0.68896C9.86959 0.598727 8.2004 1.47852 7.18854 2.86681C8.08003 2.29212 9.15049 1.97761 10.2865 2.03336C11.8453 2.10975 13.2258 2.86396 14.14 4.00733C14.5655 4.53964 15.2355 4.80765 15.9088 4.70239C16.0843 4.67495 16.2641 4.66071 16.4473 4.66071C18.724 4.66071 19.5053 6.0849 19.7719 7.14524C19.9273 7.76335 20.3894 8.24883 20.9946 8.44891C22.373 8.90474 23.3676 10.2036 23.3676 11.7349C23.3676 11.7753 23.3669 11.8155 23.3655 11.8556C23.3499 12.3129 23.23 12.7421 23.0297 13.123C24.0322 12.6612 24.749 11.6771 24.789 10.5112C24.7904 10.4711 24.7911 10.4309 24.7911 10.3905C24.7911 8.47952 23.2419 6.93037 21.3309 6.93037Z" fill="#BED9FD"/>
<path d="M5.01666 29.7701H22.5987V32.2752H5.01666V29.7701Z" fill="#62A4FB"/>
<path d="M25.8274 39.4962H2.00984C1.54421 39.4962 1.16675 39.1188 1.16675 38.6531V33.1182C1.16675 32.6526 1.54421 32.2751 2.00984 32.2751H25.8274C26.293 32.2751 26.6705 32.6526 26.6705 33.1182V38.6531C26.6705 39.1188 26.293 39.4962 25.8274 39.4962Z" fill="#BED9FD"/>
<path d="M24.1145 37.1979H13.9102C13.638 37.1979 13.4175 36.9774 13.4175 36.7052V35.1445C13.4175 34.8724 13.638 34.6519 13.9102 34.6519H24.1145C24.3866 34.6519 24.6072 34.8724 24.6072 35.1445V36.7052C24.6072 36.9774 24.3866 37.1979 24.1145 37.1979Z" fill="#80B6FC"/>
<path d="M25.8274 29.7702H2.00984C1.54421 29.7702 1.16675 29.3927 1.16675 28.9271V23.3922C1.16675 22.9265 1.54421 22.5491 2.00984 22.5491H25.8274C26.293 22.5491 26.6705 22.9265 26.6705 23.3922V28.9271C26.6705 29.3927 26.293 29.7702 25.8274 29.7702Z" fill="#BED9FD"/>
<path d="M24.1145 27.4718H13.9102C13.638 27.4718 13.4175 27.2513 13.4175 26.9792V25.4185C13.4175 25.1463 13.638 24.9258 13.9102 24.9258H24.1145C24.3866 24.9258 24.6072 25.1463 24.6072 25.4185V26.9792C24.6072 27.2512 24.3866 27.4718 24.1145 27.4718Z" fill="#80B6FC"/>
<path d="M20.2263 29.7701H22.5987V32.2752H20.2263V29.7701Z" fill="#5392F9"/>
<path d="M25.8274 32.2753H23.4549C23.9205 32.2753 24.298 32.6527 24.298 33.1184V38.6533C24.298 39.1189 23.9205 39.4964 23.4549 39.4964H25.8274C26.293 39.4964 26.6705 39.1189 26.6705 38.6533V33.1184C26.6705 32.6527 26.293 32.2753 25.8274 32.2753Z" fill="#97C3FC"/>
<path d="M24.1144 34.6519H21.7419C22.0141 34.6519 22.2346 34.8724 22.2346 35.1445V36.7052C22.2346 36.9774 22.0141 37.1979 21.7419 37.1979H24.1144C24.3865 37.1979 24.6071 36.9774 24.6071 36.7052V35.1445C24.6071 34.8724 24.3865 34.6519 24.1144 34.6519Z" fill="#62A4FB"/>
<path d="M25.8274 22.5492H23.4549C23.9205 22.5492 24.298 22.9267 24.298 23.3923V28.9272C24.298 29.3928 23.9205 29.7703 23.4549 29.7703H25.8274C26.293 29.7703 26.6705 29.3928 26.6705 28.9272V23.3923C26.6705 22.9267 26.293 22.5492 25.8274 22.5492Z" fill="#97C3FC"/>
<path d="M24.1144 24.9258H21.7419C22.0141 24.9258 22.2346 25.1463 22.2346 25.4185V26.9792C22.2346 27.2513 22.0141 27.4718 21.7419 27.4718H24.1144C24.3865 27.4718 24.6071 27.2513 24.6071 26.9792V25.4185C24.6071 25.1463 24.3865 24.9258 24.1144 24.9258Z" fill="#62A4FB"/>
<path d="M10.1067 18.5582H8.40774C8.1009 18.5582 7.85211 18.3094 7.85211 18.0026V16.3036C7.85211 15.9967 8.1009 15.7479 8.40774 15.7479H10.1067C10.4136 15.7479 10.6624 15.9967 10.6624 16.3036V18.0026C10.6624 18.3094 10.4136 18.5582 10.1067 18.5582Z" fill="#FFE07D"/>
<path d="M17.9145 19.349H16.2155C15.9087 19.349 15.6599 19.1002 15.6599 18.7933V17.0943C15.6599 16.7875 15.9087 16.5387 16.2155 16.5387H17.9145C18.2214 16.5387 18.4702 16.7875 18.4702 17.0943V18.7933C18.4702 19.1002 18.2214 19.349 17.9145 19.349Z" fill="#FF8086"/>
<path d="M17.9145 10.7509H16.2155C15.9087 10.7509 15.6599 10.5021 15.6599 10.1953V8.49631C15.6599 8.18947 15.9087 7.94067 16.2155 7.94067H17.9145C18.2214 7.94067 18.4702 8.18947 18.4702 8.49631V10.1953C18.4702 10.5021 18.2214 10.7509 17.9145 10.7509Z" fill="#FFE07D"/>
<path d="M4.13635 36.4228C4.43299 36.4228 4.6734 36.1824 4.6734 35.8858C4.6734 35.5892 4.43291 35.3488 4.13635 35.3488C3.83971 35.3488 3.5993 35.5892 3.5993 35.8858C3.5993 36.1824 3.83971 36.4228 4.13635 36.4228Z" fill="black"/>
<path d="M6.44855 36.4228C6.74518 36.4228 6.98559 36.1824 6.98559 35.8858C6.98559 35.5892 6.74518 35.3488 6.44855 35.3488C6.15191 35.3488 5.9115 35.5892 5.9115 35.8858C5.9115 36.1824 6.15191 36.4228 6.44855 36.4228Z" fill="black"/>
<path d="M8.76068 36.4228C9.05732 36.4228 9.29774 36.1824 9.29774 35.8858C9.29774 35.5892 9.05732 35.3488 8.76068 35.3488C8.46404 35.3488 8.22363 35.5892 8.22363 35.8858C8.22363 36.1824 8.46412 36.4228 8.76068 36.4228Z" fill="black"/>
<path d="M11.073 36.4228C11.3696 36.4228 11.61 36.1824 11.61 35.8858C11.61 35.5892 11.3696 35.3488 11.073 35.3488C10.7764 35.3488 10.5359 35.5892 10.5359 35.8858C10.5359 36.1824 10.7764 36.4228 11.073 36.4228Z" fill="black"/>
<path d="M3.5993 26.1597C3.5993 26.4564 3.83971 26.6968 4.13635 26.6968C4.43299 26.6968 4.6734 26.4563 4.6734 26.1597C4.6734 25.8631 4.43291 25.6227 4.13635 25.6227C3.83971 25.6227 3.5993 25.8631 3.5993 26.1597Z" fill="black"/>
<path d="M5.91144 26.1597C5.91144 26.4564 6.15185 26.6968 6.44849 26.6968C6.74513 26.6968 6.98554 26.4563 6.98554 26.1597C6.98554 25.8631 6.74513 25.6227 6.44849 25.6227C6.15193 25.6227 5.91144 25.8631 5.91144 26.1597Z" fill="black"/>
<path d="M9.29785 26.1597C9.29785 25.8631 9.05744 25.6227 8.7608 25.6227C8.46416 25.6227 8.22375 25.8632 8.22375 26.1597C8.22375 26.4564 8.46416 26.6968 8.7608 26.6968C9.05736 26.6968 9.29785 26.4564 9.29785 26.1597Z" fill="black"/>
<path d="M11.61 26.1597C11.61 25.8631 11.3696 25.6227 11.073 25.6227C10.7764 25.6227 10.5359 25.8632 10.5359 26.1597C10.5359 26.4564 10.7764 26.6968 11.073 26.6968C11.3696 26.6968 11.61 26.4564 11.61 26.1597Z" fill="black"/>
<path d="M13.9101 37.791H24.1144C24.7131 37.791 25.2002 37.3039 25.2002 36.7052V35.1445C25.2002 34.5458 24.7131 34.0587 24.1144 34.0587H13.9101C13.3115 34.0587 12.8244 34.5458 12.8244 35.1445V36.7052C12.8244 37.3039 13.3115 37.791 13.9101 37.791ZM14.0106 35.245H24.014V36.6048H14.0106V35.245Z" fill="black"/>
<path d="M25.8274 30.3633C26.6194 30.3633 27.2636 29.719 27.2636 28.9271V23.3922C27.2636 22.6003 26.6194 21.956 25.8274 21.956H17.6582V19.942H17.9145C18.548 19.942 19.0632 19.4267 19.0632 18.7933V17.0942C19.0632 16.4608 18.5479 15.9455 17.9145 15.9455H17.6582V13.9979H21.7426C22.6831 13.9979 23.5775 13.6427 24.2609 12.9979C24.9514 12.3462 25.3496 11.4703 25.3817 10.5318C25.3834 10.4849 25.3842 10.4377 25.3842 10.3904C25.3842 8.35012 23.8689 6.65704 21.9046 6.37765C21.7036 4.3291 19.9712 2.72317 17.8707 2.72317C17.3999 2.72317 16.932 2.80573 16.4919 2.96453C15.4948 1.27699 13.7216 0.193725 11.7391 0.096533C10.1342 0.0178461 8.6011 0.588267 7.42412 1.70285C6.24871 2.81602 5.59652 4.31273 5.58782 5.91747C5.58687 6.09105 5.59368 6.26511 5.60807 6.43838C3.79582 6.84985 2.453 8.47847 2.453 10.3905C2.453 10.4377 2.45379 10.4845 2.45537 10.5316C2.48764 11.4705 2.88566 12.3463 3.57629 12.9979C4.25972 13.6428 5.15398 13.9979 6.0945 13.9979H8.70462V15.1548H8.40766C7.77421 15.1548 7.25891 15.6701 7.25891 16.3035V18.0025C7.25891 18.636 7.77421 19.1513 8.40766 19.1513H10.1066C10.74 19.1513 11.2553 18.636 11.2553 18.0025V16.3035C11.2553 15.6701 10.74 15.1548 10.1066 15.1548H9.89077V13.9979H16.4718V15.9456H16.2154C15.5819 15.9456 15.0667 16.4609 15.0667 17.0943V18.7933C15.0667 19.4268 15.582 19.9421 16.2154 19.9421H16.4718V21.9561H8.03724C7.70968 21.9561 7.44412 22.2216 7.44412 22.5492C7.44412 22.8767 7.70968 23.1423 8.03724 23.1423H25.8274C25.9652 23.1423 26.0773 23.2544 26.0773 23.3923V28.9272C26.0773 29.065 25.9652 29.1772 25.8274 29.1772H2.00982C1.87198 29.1772 1.75984 29.065 1.75984 28.9272V23.3923C1.75984 23.2544 1.87198 23.1423 2.00982 23.1423H5.66469C5.99225 23.1423 6.25781 22.8767 6.25781 22.5492C6.25781 22.2216 5.99225 21.9561 5.66469 21.9561H2.00982C1.21789 21.9561 0.573608 22.6004 0.573608 23.3923V28.9272C0.573608 29.7191 1.21789 30.3634 2.00982 30.3634H4.42357V31.6822H2.00982C1.21789 31.6822 0.573608 32.3265 0.573608 33.1184V38.6533C0.573608 39.4452 1.21789 40.0895 2.00982 40.0895H25.8274C26.6193 40.0895 27.2635 39.4452 27.2635 38.6533V33.1184C27.2635 32.3265 26.6193 31.6822 25.8274 31.6822H23.1919V30.3634H25.8274V30.3633ZM10.0692 17.965H8.44523V16.341H10.0692V17.965ZM6.09458 12.8117C4.78561 12.8117 3.68494 11.7706 3.64097 10.4913C3.63987 10.4578 3.63931 10.4242 3.63931 10.3905C3.63931 8.88645 4.81392 7.63031 6.31332 7.53082C6.4828 7.51959 6.6393 7.43624 6.74322 7.30188C6.84713 7.16752 6.88841 6.99512 6.85678 6.82826C6.80024 6.53106 6.7724 6.22684 6.77406 5.92395C6.78102 4.6459 7.30154 3.45271 8.23977 2.56422C9.12241 1.72832 10.254 1.27565 11.4483 1.27565C11.5256 1.27565 11.6032 1.27755 11.681 1.28134C13.4178 1.36652 14.9533 2.40123 15.6882 3.98169C15.7572 4.12997 15.8843 4.24329 16.0396 4.2947C16.1951 4.3461 16.3645 4.33107 16.5084 4.25318C16.9238 4.02835 17.3949 3.90949 17.8707 3.90949C19.4516 3.90949 20.7378 5.1956 20.7378 6.77654C20.7378 6.81948 20.7364 6.86202 20.7345 6.90449C20.7274 7.06614 20.7867 7.22367 20.8986 7.34055C21.0104 7.45744 21.1652 7.52355 21.327 7.52355C21.3301 7.52355 21.3334 7.52355 21.3369 7.52347C22.915 7.52679 24.198 8.81164 24.198 10.3905C24.198 10.4241 24.1974 10.4575 24.1962 10.491C24.1522 11.7707 23.0516 12.8118 21.7426 12.8118H17.6582V11.3441H17.9145C18.548 11.3441 19.0632 10.8288 19.0632 10.1953V8.49634C19.0632 7.86289 18.5479 7.34759 17.9145 7.34759H16.2155C15.5821 7.34759 15.0669 7.86289 15.0669 8.49634V10.1953C15.0669 10.8288 15.5822 11.3441 16.2155 11.3441H16.4719V12.8118H6.09458V12.8117ZM16.253 10.1579V8.53382H17.877V10.1579H16.253ZM16.253 17.1318H17.877V18.7558H16.253V17.1318ZM26.0773 33.1183V38.6532C26.0773 38.791 25.9652 38.9032 25.8274 38.9032H2.00982C1.87198 38.9032 1.75984 38.791 1.75984 38.6532V33.1183C1.75984 32.9805 1.87198 32.8683 2.00982 32.8683H25.8274C25.9652 32.8684 26.0773 32.9805 26.0773 33.1183ZM22.0056 31.6822H5.60981V30.3634H22.0056V31.6822Z" fill="black"/>
<path d="M24.1144 28.0649C24.7131 28.0649 25.2002 27.5779 25.2002 26.9791V25.4184C25.2002 24.8198 24.7131 24.3326 24.1144 24.3326H13.9101C13.3115 24.3326 12.8244 24.8197 12.8244 25.4184V26.9791C12.8244 27.5779 13.3115 28.0649 13.9101 28.0649H24.1144ZM14.0106 25.5189H24.014V26.8787H14.0106V25.5189Z" fill="black"/>
</svg>
