<svg width="58" height="74" viewBox="0 0 58 74" fill="none" xmlns="http://www.w3.org/2000/svg">
<path d="M13.024 29.91C13.2844 19.0534 23.2697 10.4132 35.5118 10.4132C37.0748 10.4132 38.551 10.5242 40.0265 10.8565C50.1857 12.6289 57.8266 20.4943 58 29.91C58 30.021 58 30.1313 58 30.3533C58 35.6709 55.6557 40.4344 51.8353 43.979C51.7483 44.09 51.7483 44.09 51.6618 44.2003L55.6557 56.6071L41.937 49.4062C39.9401 49.9597 37.7691 50.1817 35.5988 50.1817C28.4793 50.1817 22.1405 47.3016 18.0596 42.7594C14.9339 39.3251 13.1104 35.0051 13.1104 30.3526C13.024 30.132 13.024 30.021 13.024 29.91Z" fill="#4EB3E6"/>
<path d="M44.9761 36.889C44.7156 26.1434 34.7303 17.3922 22.4877 17.3922C20.9246 17.3922 19.4485 17.5032 17.973 17.8354C7.81437 19.6078 0.173434 27.4732 0 36.889C0 37 0 37.111 0 37.3323C0 42.6499 2.34436 47.4133 6.16477 50.958C6.25177 51.069 6.25177 51.069 6.3382 51.1792L2.34436 63.5868L16.0631 56.3858C18.06 56.9401 20.2309 57.1614 22.4013 57.1614C29.5208 57.1614 35.8596 54.2813 39.9405 49.7391C43.0661 46.3048 44.8896 41.9847 44.8896 37.3323C44.9761 37.2213 44.9761 37.111 44.9761 36.889Z" fill="#71CFF4"/>
<path d="M14.8475 40.1028C16.0465 40.1028 17.0184 38.8627 17.0184 37.333C17.0184 35.8032 16.0465 34.5632 14.8475 34.5632C13.6485 34.5632 12.6766 35.8032 12.6766 37.333C12.6766 38.8627 13.6485 40.1028 14.8475 40.1028Z" fill="white"/>
<path d="M22.4878 40.1028C23.6868 40.1028 24.6587 38.8627 24.6587 37.333C24.6587 35.8032 23.6868 34.5632 22.4878 34.5632C21.2888 34.5632 20.3169 35.8032 20.3169 37.333C20.3169 38.8627 21.2888 40.1028 22.4878 40.1028Z" fill="white"/>
<path d="M30.1288 40.1028C31.3278 40.1028 32.2997 38.8627 32.2997 37.333C32.2997 35.8032 31.3278 34.5632 30.1288 34.5632C28.9298 34.5632 27.9579 35.8032 27.9579 37.333C27.9579 38.8627 28.9298 40.1028 30.1288 40.1028Z" fill="white"/>
</svg>
