<svg width="35" height="40" viewBox="0 0 35 40" fill="none" xmlns="http://www.w3.org/2000/svg">
<path d="M16.2066 35.144C16.4294 35.1815 17.4674 35.3003 18.3098 35.394C18.9674 35.4628 19.4674 36.1003 19.4674 36.8565V38.644H6.42395V36.8503C6.42395 36.094 6.92395 35.4628 7.57612 35.3878L9.68482 35.144H9.70656C9.80982 35.7128 10.25 36.144 10.7718 36.144H15.1196C15.6413 36.144 16.0816 35.7128 16.1848 35.144H16.2066Z" fill="#969FAA"/>
<path d="M16.2066 32.394V34.894C16.2066 34.9815 16.2011 35.0628 16.1848 35.144C16.0816 35.7128 15.6413 36.144 15.1196 36.144H10.7718C10.25 36.144 9.80981 35.7128 9.70655 35.144C9.69025 35.0628 9.68481 34.9815 9.68481 34.894V32.394H16.2066Z" fill="#AAB2BD"/>
<path d="M22.7283 13.644H3.16305C1.96196 13.644 0.989136 14.7628 0.989136 16.144V29.894C0.989136 31.2753 1.96196 32.394 3.16305 32.394H22.7283C23.9294 32.394 24.9022 31.2753 24.9022 29.894V16.144C24.9022 14.7628 23.9294 13.644 22.7283 13.644Z" fill="#CCD1D9"/>
<path d="M22.7283 16.769V26.769C22.7283 27.1128 22.4837 27.394 22.1848 27.394H3.70656C3.40765 27.394 3.16309 27.1128 3.16309 26.769V16.769C3.16309 16.4253 3.40765 16.144 3.70656 16.144H22.1848C22.4837 16.144 22.7283 16.4253 22.7283 16.769Z" fill="#69D6F4"/>
<path d="M5.33698 18.644H10.7718V24.894H5.33698V18.644Z" fill="#B4DD7F"/>
<path d="M20.5543 29.894H22.7282V32.394H20.5543V29.894Z" fill="#FCD770"/>
<path d="M12.9457 31.144C13.546 31.144 14.0326 30.5844 14.0326 29.894C14.0326 29.2037 13.546 28.644 12.9457 28.644C12.3454 28.644 11.8587 29.2037 11.8587 29.894C11.8587 30.5844 12.3454 31.144 12.9457 31.144Z" fill="#FF826E"/>
<path d="M33.5979 11.144V17.394H31.424V12.394V11.144H33.5979Z" fill="#FFEAA7"/>
<path d="M31.4239 12.394V17.394H29.25V13.644V12.394H31.4239Z" fill="#FFEAA7"/>
<path d="M27.0761 13.644H29.25V17.394H27.0761V13.644Z" fill="#FFEAA7"/>
<path d="M11.8587 4.89404V7.39404L11.0544 7.73154C11.0327 7.78779 11.0163 7.85029 10.9946 7.90654L11.3533 8.79404L9.81526 10.5628L9.04352 10.1503C8.99461 10.1753 8.94026 10.194 8.89135 10.219L8.59787 11.144H6.42396L6.13048 10.219C6.08156 10.194 6.02722 10.1753 5.9783 10.1503L5.20656 10.5628L3.66852 8.79404L4.02722 7.90654C4.00548 7.85029 3.98917 7.78779 3.96743 7.73154L3.16309 7.39404V4.89404L3.96743 4.55654C3.98917 4.50029 4.00548 4.43779 4.02722 4.38154L3.66852 3.49404L5.20656 1.72529L5.9783 2.13779C6.02722 2.11279 6.08156 2.09404 6.13048 2.06904L6.42396 1.14404H8.59787L8.89135 2.06904C8.94026 2.09404 8.99461 2.11279 9.04352 2.13779L9.81526 1.72529L11.3533 3.49404L10.9946 4.38154C11.0163 4.43779 11.0327 4.50029 11.0544 4.55654L11.8587 4.89404ZM9.68483 6.14404C9.68483 4.76279 8.712 3.64404 7.51091 3.64404C6.30983 3.64404 5.337 4.76279 5.337 6.14404C5.337 7.52529 6.30983 8.64404 7.51091 8.64404C8.712 8.64404 9.68483 7.52529 9.68483 6.14404Z" fill="#FCD770"/>
<path d="M22.7283 13.019H3.16307C1.6647 13.019 0.445679 14.4209 0.445679 16.144V29.894C0.445679 31.6172 1.6647 33.019 3.16307 33.019H9.14133V34.579L7.52177 34.7653C6.5859 34.8722 5.88046 35.7678 5.88046 36.8497V39.269H20.0109V36.8565C20.0109 35.7715 19.3033 34.8747 18.3647 34.7709C17.556 34.6815 17.0587 34.624 16.75 34.5872V33.019H22.7283C24.2267 33.019 25.4457 31.6172 25.4457 29.894V16.144C25.4457 14.4209 24.2267 13.019 22.7283 13.019ZM18.9239 36.8565V38.019H6.96742V36.8497C6.96742 36.4134 7.25166 36.0522 7.62937 36.009L9.35818 35.8103C9.63861 36.3797 10.1636 36.769 10.7718 36.769H15.1196C15.7256 36.769 16.2489 36.3828 16.5299 35.8172C16.8919 35.8615 17.468 35.9272 18.2603 36.0147C18.6386 36.0565 18.9239 36.4184 18.9239 36.8565ZM15.6631 34.894C15.6631 35.239 15.419 35.519 15.1196 35.519H10.7718C10.4723 35.519 10.2283 35.239 10.2283 34.894V33.019H15.6631V34.894ZM22.1848 31.769H21.0979V30.519H22.1848V31.769ZM24.3587 29.894C24.3587 30.7078 23.9027 31.3953 23.2718 31.654V29.269H20.0109V31.769H12.9457H3.16307C2.26416 31.769 1.53264 30.9278 1.53264 29.894V16.144C1.53264 15.1103 2.26416 14.269 3.16307 14.269H22.7283C23.6272 14.269 24.3587 15.1103 24.3587 16.144V29.894Z" fill="black"/>
<path d="M23.2718 26.769V16.769C23.2718 16.0797 22.7843 15.519 22.1848 15.519H3.70659C3.10713 15.519 2.61963 16.0797 2.61963 16.769V26.769C2.61963 27.4584 3.10713 28.019 3.70659 28.019H12.9457H22.1848C22.7843 28.019 23.2718 27.4584 23.2718 26.769ZM3.70659 26.769V16.769H22.1848L22.1854 26.769H3.70659Z" fill="black"/>
<path d="M14.5761 29.894C14.5761 28.8603 13.8446 28.019 12.9457 28.019C12.0468 28.019 11.3152 28.8603 11.3152 29.894C11.3152 30.9278 12.0468 31.769 12.9457 31.769C13.8446 31.769 14.5761 30.9278 14.5761 29.894ZM12.9457 30.519C12.6462 30.519 12.4022 30.239 12.4022 29.894C12.4022 29.549 12.6462 29.269 12.9457 29.269C13.2451 29.269 13.4892 29.549 13.4892 29.894C13.4892 30.239 13.2451 30.519 12.9457 30.519Z" fill="black"/>
<path d="M3.01419 8.92779L5.09028 11.3153L5.78213 10.9428L6.043 11.769H8.97833L9.23919 10.9434L9.93104 11.3159L12.0071 8.92842L11.6838 8.13279L12.4022 7.83217V4.45592L11.6843 4.15654L12.0077 3.36092L9.93159 0.973418L9.23974 1.34592L8.97887 0.519043H6.04354L5.78267 1.34467L5.09028 0.972793L3.01419 3.36029L3.33756 4.15592L2.61963 4.45592V7.83217L3.33756 8.13154L3.01419 8.92779ZM3.70659 5.33217L4.15387 5.14467L4.3968 5.01217L4.62669 4.37529L4.32126 3.62529L5.31963 2.47654L5.9718 2.82654L6.55876 2.54842L6.80496 1.76904H8.21746L8.37996 2.28342L8.49028 2.55967L9.05061 2.82592L9.70278 2.47592L10.7012 3.62467L10.3957 4.37529L10.6387 5.04842L11.3153 5.33217V6.95592L10.868 7.14342L10.6251 7.27592L10.3952 7.91279L10.7006 8.66342L9.70224 9.81217L9.05115 9.46217L8.46365 9.74029L8.21691 10.519H6.80441L6.64191 10.0047L6.53104 9.72779L5.97072 9.46217L5.31963 9.81217L4.32126 8.66279L4.62669 7.91217L4.38376 7.23904L3.70659 6.95592V5.33217Z" fill="black"/>
<path d="M7.51091 9.26904C9.00928 9.26904 10.2283 7.86717 10.2283 6.14404C10.2283 4.42092 9.00928 3.01904 7.51091 3.01904C6.01254 3.01904 4.79352 4.42092 4.79352 6.14404C4.79352 7.86717 6.01254 9.26904 7.51091 9.26904ZM7.51091 4.26904C8.40982 4.26904 9.14134 5.11029 9.14134 6.14404C9.14134 7.17779 8.40982 8.01904 7.51091 8.01904C6.612 8.01904 5.88047 7.17779 5.88047 6.14404C5.88047 5.11029 6.612 4.26904 7.51091 4.26904Z" fill="black"/>
<path d="M16.5908 8.20215L15.3446 6.76902H29.7935V9.26902H30.8805V5.51902H15.3446L16.5908 4.0859L15.8223 3.20215L13.2642 6.14402L15.8223 9.0859L16.5908 8.20215Z" fill="black"/>
<path d="M27.7788 21.9521L28.5473 22.8359L29.7935 21.4028V26.769H26.5327V28.019H30.8805V21.4028L32.1267 22.8359L32.8952 21.9521L30.337 19.0103L27.7788 21.9521Z" fill="black"/>
<path d="M30.8805 10.519V11.769H28.7066V13.019H26.5327V18.019H34.1414V10.519H30.8805ZM27.6196 14.269H28.7066V16.769H27.6196V14.269ZM29.7935 13.019H30.8805V16.769H29.7935V13.019ZM33.0544 16.769H31.9674V11.769H33.0544V16.769Z" fill="black"/>
<path d="M4.79352 25.519H11.3153V18.019H4.79352V25.519ZM5.88047 19.269H10.2283V24.269H5.88047V19.269Z" fill="black"/>
<path d="M12.4022 18.019H21.0979V19.269H12.4022V18.019Z" fill="black"/>
<path d="M12.4022 23.019H21.0979V24.269H12.4022V23.019Z" fill="black"/>
<path d="M12.4022 20.519H13.4892V21.769H12.4022V20.519Z" fill="black"/>
<path d="M14.5761 20.519H21.0979V21.769H14.5761V20.519Z" fill="black"/>
</svg>
