<svg width="40" height="40" viewBox="0 0 40 40" fill="none" xmlns="http://www.w3.org/2000/svg">
<path d="M19.9185 25.9884C17.1616 25.9884 14.9185 28.2315 14.9185 30.9884C14.9185 33.7453 17.1616 35.9884 19.9185 35.9884C22.6754 35.9884 24.9185 33.7453 24.9185 30.9884C24.9185 28.2315 22.6754 25.9884 19.9185 25.9884ZM19.9185 34.7384C17.8504 34.7384 16.1685 33.0565 16.1685 30.9884C16.1685 28.9203 17.8504 27.2384 19.9185 27.2384C21.9866 27.2384 23.6685 28.9203 23.6685 30.9884C23.6685 33.0565 21.9866 34.7384 19.9185 34.7384Z" fill="black"/>
<path d="M19.9185 28.4884C18.5398 28.4884 17.4185 29.6097 17.4185 30.9884C17.4185 32.3672 18.5398 33.4884 19.9185 33.4884C21.2973 33.4884 22.4185 32.3672 22.4185 30.9884C22.4185 29.6097 21.2973 28.4884 19.9185 28.4884ZM19.9185 32.2384C19.2291 32.2384 18.6685 31.6778 18.6685 30.9884C18.6685 30.299 19.2291 29.7384 19.9185 29.7384C20.6079 29.7384 21.1685 30.299 21.1685 30.9884C21.1685 31.6778 20.6079 32.2384 19.9185 32.2384Z" fill="black"/>
<path d="M15.5435 13.4884V14.7384C15.8885 14.7384 16.1685 15.0184 16.1685 15.3634H17.4185C17.4185 14.3297 16.5773 13.4884 15.5435 13.4884Z" fill="black"/>
<path d="M16.1685 10.9884H17.4185C17.4185 10.6434 17.6985 10.3634 18.0435 10.3634V9.1134C17.0098 9.1134 16.1685 9.95465 16.1685 10.9884Z" fill="black"/>
<path d="M17.4185 4.7384H18.6685C18.6685 3.70465 17.8273 2.8634 16.7935 2.8634V4.1134C17.1385 4.1134 17.4185 4.3934 17.4185 4.7384Z" fill="black"/>
<path d="M32.1916 34.5634L30.3241 30.3634H28.0435V28.6709L26.9023 28.2684C26.8635 28.1703 26.8229 28.0721 26.7798 27.974L27.3023 26.8809L24.026 23.6047L22.9329 24.1272C22.8354 24.084 22.7373 24.0428 22.6385 24.0047L22.236 22.8634H20.5435V21.6134H35.6585C35.9173 22.339 36.6048 22.8634 37.4185 22.8634C38.4523 22.8634 39.2935 22.0222 39.2935 20.9884C39.2935 19.9547 38.4523 19.1134 37.4185 19.1134C36.6048 19.1134 35.9173 19.6378 35.6585 20.3634H20.5435V13.4878L25.9098 13.4884L27.7848 15.3634H33.7835C34.0423 16.089 34.7298 16.6134 35.5435 16.6134C36.5773 16.6134 37.4185 15.7722 37.4185 14.7384C37.4185 13.7047 36.5773 12.8634 35.5435 12.8634C34.7298 12.8634 34.0423 13.3878 33.7835 14.1134H28.3023L26.4273 12.2384L20.5435 12.2378V9.7384H28.7835C29.0423 10.464 29.7298 10.9884 30.5435 10.9884C31.5773 10.9884 32.4185 10.1472 32.4185 9.1134C32.4185 8.07965 31.5773 7.2384 30.5435 7.2384C29.7298 7.2384 29.0423 7.76278 28.7835 8.4884H20.5435V5.98778L26.4273 5.9884L28.3023 4.1134H32.5335C32.7923 4.83903 33.4798 5.3634 34.2935 5.3634C35.3273 5.3634 36.1685 4.52215 36.1685 3.4884C36.1685 2.45465 35.3273 1.6134 34.2935 1.6134C33.4798 1.6134 32.7923 2.13778 32.5335 2.8634H27.7848L25.9098 4.7384L20.5435 4.73778V4.1134C20.5435 2.04528 18.8616 0.363403 16.7935 0.363403C14.7254 0.363403 13.0435 2.04528 13.0435 4.1134C13.0435 4.39215 13.0766 4.6634 13.1348 4.92465C11.6166 5.4159 10.5435 6.83465 10.5435 8.4884C10.5435 8.97153 10.6385 9.43215 10.8054 9.85653C9.86227 10.5584 9.29352 11.6665 9.29352 12.8634C9.29352 14.7184 10.6473 16.2628 12.4191 16.5615C12.4185 16.5784 12.4185 16.5965 12.4185 16.6134C12.4185 18.6078 13.9841 20.2447 15.951 20.3572C16.3248 20.6622 17.3748 21.6803 17.4116 23.3997L17.1985 24.004C17.1004 24.0428 17.0023 24.0834 16.9041 24.1265L15.811 23.604L12.5348 26.8803L13.0573 27.9734C13.0141 28.0709 12.9729 28.169 12.9348 28.2678L11.7935 28.6709V30.3634H9.51289L7.64602 34.5634L6.05539 26.6134H0.543518V27.8634H5.03164L7.19164 38.6634L10.3241 31.6134H11.7935V33.3059L12.9348 33.7084C12.9735 33.8065 13.0141 33.9047 13.0573 34.0028L12.5348 35.0959L15.811 38.3722L16.9041 37.8497C17.0016 37.8928 17.0998 37.934 17.1985 37.9721L17.601 39.1134H22.236L22.6385 37.9721C22.7366 37.9334 22.8348 37.8928 22.9329 37.8497L24.026 38.3722L27.3023 35.0959L26.7798 34.0028C26.8229 33.9053 26.8641 33.8072 26.9023 33.7084L28.0435 33.3059V31.6134H29.5129L32.646 38.6634L34.8054 27.8634H39.2935V26.6134H33.7816L32.1916 34.5634ZM37.4185 20.3634C37.7635 20.3634 38.0435 20.6434 38.0435 20.9884C38.0435 21.3334 37.7635 21.6134 37.4185 21.6134C37.0735 21.6134 36.7935 21.3334 36.7935 20.9884C36.7935 20.6434 37.0735 20.3634 37.4185 20.3634ZM35.5435 14.1134C35.8885 14.1134 36.1685 14.3934 36.1685 14.7384C36.1685 15.0834 35.8885 15.3634 35.5435 15.3634C35.1985 15.3634 34.9185 15.0834 34.9185 14.7384C34.9185 14.3934 35.1985 14.1134 35.5435 14.1134ZM30.5435 8.4884C30.8885 8.4884 31.1685 8.7684 31.1685 9.1134C31.1685 9.4584 30.8885 9.7384 30.5435 9.7384C30.1985 9.7384 29.9185 9.4584 29.9185 9.1134C29.9185 8.7684 30.1985 8.4884 30.5435 8.4884ZM34.2935 2.8634C34.6385 2.8634 34.9185 3.1434 34.9185 3.4884C34.9185 3.8334 34.6385 4.1134 34.2935 4.1134C33.9485 4.1134 33.6685 3.8334 33.6685 3.4884C33.6685 3.1434 33.9485 2.8634 34.2935 2.8634ZM16.5154 19.2184L16.3579 19.1134H16.1685C14.7898 19.1134 13.6685 17.9922 13.6685 16.6134C13.6685 16.4434 13.6854 16.2728 13.7198 16.1078L13.8791 15.3353L13.0904 15.3565C13.0635 15.3578 13.0379 15.3597 13.0116 15.3634C11.6479 15.3459 10.5435 14.2309 10.5435 12.8634C10.5435 12.1065 10.8879 11.4065 11.4591 10.9365C12.1473 11.7322 13.1616 12.2384 14.2935 12.2384V10.9884C12.9148 10.9884 11.7935 9.86715 11.7935 8.4884C11.7935 7.35278 12.5523 6.3859 13.611 6.08778C14.2735 7.15153 15.4504 7.8634 16.7935 7.8634V6.6134C15.4148 6.6134 14.2935 5.49215 14.2935 4.1134C14.2935 2.73465 15.4148 1.6134 16.7935 1.6134C18.1723 1.6134 19.2935 2.73465 19.2935 4.1134V22.8634H18.6291C18.356 20.4784 16.596 19.2722 16.5154 19.2184ZM26.7935 32.4209L25.9229 32.7278L25.8254 33.0147C25.7441 33.2534 25.6435 33.494 25.5273 33.7303L25.3935 34.0028L25.7929 34.8372L23.7666 36.8634L22.9323 36.464L22.6598 36.5978C22.4235 36.714 22.1829 36.8147 21.9441 36.8959L21.6573 36.9934L21.351 37.8634H18.486L18.1791 36.9928L17.8923 36.8953C17.6535 36.814 17.4129 36.7134 17.1766 36.5971L16.9041 36.4634L16.0698 36.8628L14.0435 34.8365L14.4429 34.0021L14.3091 33.7297C14.1929 33.4934 14.0923 33.2528 14.011 33.014L13.9135 32.7271L13.0435 32.4209V29.5559L13.9141 29.249L14.0116 28.9622C14.0929 28.7234 14.1935 28.4828 14.3098 28.2465L14.4435 27.974L14.0441 27.1397L16.0704 25.1134L16.9048 25.5128L17.1773 25.379C17.4135 25.2628 17.6541 25.1622 17.8929 25.0809L18.1798 24.9834L18.486 24.1134H21.351L21.6579 24.984L21.9448 25.0815C22.1835 25.1628 22.4241 25.2634 22.6604 25.3797L22.9329 25.5134L23.7673 25.114L25.7935 27.1403L25.3941 27.9747L25.5279 28.2472C25.6441 28.4834 25.7448 28.724 25.826 28.9628L25.9235 29.2496L26.7935 29.5559V32.4209Z" fill="black"/>
</svg>
