<svg width="41" height="41" viewBox="0 0 41 41" fill="none" xmlns="http://www.w3.org/2000/svg">
<g clip-path="url(#clip0)">
<path d="M27.9104 36.1382V37.3882H11.6604V36.1382C11.6623 35.4489 12.221 34.8901 12.9104 34.8882H26.6604C27.3498 34.8901 27.9085 35.4489 27.9104 36.1382Z" fill="#DEDEDE"/>
<path d="M26.0354 32.3882L26.6604 34.8882H12.9104L13.5354 32.3882H26.0354Z" fill="#969696"/>
<path d="M3.5354 32.3882C2.15478 32.3882 1.0354 31.2689 1.0354 29.8882V27.3882H39.7854V29.8882C39.7854 31.2689 38.666 32.3882 37.2854 32.3882H3.5354Z" fill="#B5B5B5"/>
<path d="M39.7854 3.63824V27.3882H1.0354V3.63824C1.0354 2.25762 2.15478 1.13824 3.5354 1.13824H37.2854C38.666 1.13824 39.7854 2.25762 39.7854 3.63824Z" fill="#F2F2F2"/>
<path d="M16.7373 33.0132H26.1917L26.0354 32.3882H13.5354L12.9104 34.8882H14.3185C14.6035 33.7851 15.5979 33.0139 16.7373 33.0132Z" fill="#808080"/>
<path d="M13.6504 34.8882H12.9104C12.221 34.8901 11.6623 35.4489 11.6604 36.1382V37.3882H27.9104V36.1382H15.4104C14.6179 36.137 13.9129 35.6357 13.6504 34.8882Z" fill="#B5B5B5"/>
<path d="M38.5354 27.3882V29.8882C38.5354 30.5789 37.976 31.1382 37.2854 31.1382H3.5354C2.84478 31.1382 2.2854 30.5789 2.2854 29.8882V27.3882H1.0354V29.8882C1.0354 31.2689 2.15478 32.3882 3.5354 32.3882H37.2854C38.666 32.3882 39.7854 31.2689 39.7854 29.8882V27.3882H38.5354Z" fill="#A3A3A3"/>
<path d="M37.2854 1.13824H3.5354C2.15478 1.13824 1.0354 2.25762 1.0354 3.63824V27.3882H2.2854V3.63824C2.2854 2.94762 2.84478 2.38824 3.5354 2.38824H37.2854C37.976 2.38824 38.5354 2.94762 38.5354 3.63824V27.3882H39.7854V3.63824C39.7854 2.25762 38.666 1.13824 37.2854 1.13824Z" fill="#DEDEDE"/>
<path d="M37.2854 2.38824H4.7854C4.7854 14.8257 19.8804 24.8882 38.5354 24.8882V3.63824C38.5354 2.94762 37.976 2.38824 37.2854 2.38824Z" fill="white"/>
<path d="M19.7854 36.1382H37.2854V37.3882C37.2854 38.7689 36.166 39.8882 34.7854 39.8882H22.2854C20.9048 39.8882 19.7854 38.7689 19.7854 37.3882V36.1382Z" fill="#5ACAFA"/>
<path d="M37.2854 12.3882V13.0132H32.9104C32.9104 13.0132 32.9104 14.8882 31.6604 14.8882H25.4104C24.1604 14.8882 24.1604 13.0132 24.1604 13.0132H19.7854V12.3882C19.7854 11.0076 20.9048 9.88824 22.2854 9.88824H34.7854C36.166 9.88824 37.2854 11.0076 37.2854 12.3882Z" fill="#5ACAFA"/>
<path d="M37.2854 13.0132V36.1382H19.7854V13.0132H24.1604C24.1604 13.0132 24.1604 14.8882 25.4104 14.8882H31.6604C32.9104 14.8882 32.9104 13.0132 32.9104 13.0132H37.2854Z" fill="#DEDEDE"/>
<path d="M25.4104 14.8882H31.6604C32.9104 14.8882 32.9104 13.0132 32.9104 13.0132H24.1604C24.1604 13.0132 24.1604 14.8882 25.4104 14.8882Z" fill="#5ACAFA"/>
<path d="M34.7854 38.6382H22.2854C20.9048 38.6382 19.7854 37.5189 19.7854 36.1382V37.3882C19.7854 38.7689 20.9048 39.8882 22.2854 39.8882H34.7854C36.166 39.8882 37.2854 38.7689 37.2854 37.3882V36.1382C37.2854 37.5189 36.166 38.6382 34.7854 38.6382Z" fill="#1C99EB"/>
<path d="M32.9104 13.0132C32.9104 13.0132 32.9104 14.8882 31.6604 14.8882H25.4104C24.1604 14.8882 24.1604 13.0132 24.1604 13.0132H22.2854C22.2854 23.377 28.9942 31.7632 37.2854 31.7632V13.0132H32.9104Z" fill="#F2F2F2"/>
<path d="M22.2854 11.1382H34.7854C35.9229 11.1395 36.9154 11.9114 37.1973 13.0132H37.2854V12.3882C37.2854 11.0076 36.166 9.88824 34.7854 9.88824H22.2854C20.9048 9.88824 19.7854 11.0076 19.7854 12.3882V13.0132H19.8735C20.1554 11.9114 21.1479 11.1395 22.2854 11.1382Z" fill="#1C99EB"/>
<path d="M28.5354 31.1382C31.9872 31.1382 34.7854 28.34 34.7854 24.8882C34.7854 21.4365 31.9872 18.6382 28.5354 18.6382C25.0836 18.6382 22.2854 21.4365 22.2854 24.8882C22.2854 28.34 25.0836 31.1382 28.5354 31.1382Z" fill="#00AAFF"/>
<path d="M24.1604 25.5132L27.2854 28.6382L32.9104 23.0132L31.0354 21.1382L27.2854 24.8882L26.0354 23.6382L24.1604 25.5132Z" fill="#F2F2F2"/>
<path d="M17.2854 11.7632V9.26325H15.891C15.7504 8.64637 15.506 8.05762 15.1685 7.52262L16.1554 6.53574L14.3879 4.76824L13.401 5.75512C12.866 5.41762 12.2773 5.17324 11.6604 5.03262V3.63824H9.1604V5.03262C8.54353 5.17324 7.95478 5.41762 7.41978 5.75512L6.4329 4.76824L4.6654 6.53574L5.65228 7.52262C5.31478 8.05762 5.0704 8.64637 4.92978 9.26325H3.5354V11.7632H4.92978C5.0704 12.3801 5.31478 12.9689 5.65228 13.5039L4.6654 14.4907L6.4329 16.2582L7.41978 15.2714C7.95478 15.6089 8.54353 15.8532 9.1604 15.9939V17.3882H11.6604V15.9939C12.2773 15.8532 12.866 15.6089 13.401 15.2714L14.3879 16.2582L16.1554 14.4907L15.1685 13.5039C15.506 12.9689 15.7504 12.3801 15.891 11.7632H17.2854Z" fill="#939393"/>
<path d="M10.4104 13.0132C11.7911 13.0132 12.9104 11.894 12.9104 10.5132C12.9104 9.13253 11.7911 8.01324 10.4104 8.01324C9.02969 8.01324 7.9104 9.13253 7.9104 10.5132C7.9104 11.894 9.02969 13.0132 10.4104 13.0132Z" fill="white"/>
<path d="M14.7854 24.8882C14.7854 23.5076 15.9048 22.3882 17.2854 22.3882C18.666 22.3882 19.7854 23.5076 19.7854 24.8882V19.8576C19.3885 19.6582 18.9685 19.507 18.5354 19.4076V18.0132H16.0354V19.4076C15.4185 19.5482 14.8298 19.7926 14.2948 20.1301L13.3079 19.1432L11.5404 20.9107L12.5273 21.8976C12.1898 22.4326 11.9454 23.0214 11.8048 23.6382H10.4104V26.1382H11.8048C11.9042 26.5714 12.0554 26.9914 12.2548 27.3882H17.2854C15.9048 27.3882 14.7854 26.2689 14.7854 24.8882Z" fill="#8E8D92"/>
<path d="M17.2854 27.3882H19.7854V24.8882C19.7854 26.2689 18.666 27.3882 17.2854 27.3882Z" fill="#8E8D92"/>
<path d="M28.7622 27.1614L27.2854 28.6382L24.1604 25.5132L25.1604 24.5164C24.3635 23.2951 24.0272 21.8295 24.2135 20.3832C21.7235 22.7707 21.6404 26.7257 24.0279 29.2157C26.4154 31.7057 30.3704 31.7889 32.8604 29.4014C33.9016 28.4032 34.5654 27.0751 34.7385 25.6432C33.1579 27.1732 30.8847 27.7514 28.7654 27.1614H28.7622Z" fill="#007AFF"/>
<path d="M27.2854 28.6382L28.7623 27.1614C27.2766 26.7532 25.9941 25.8114 25.1604 24.5164L24.1604 25.5132L27.2854 28.6382Z" fill="#DEDEDE"/>
<path d="M17.2854 35.5132H19.7854V36.1382H17.2854V35.5132Z" fill="#B5B5B5"/>
<path d="M17.2854 33.0132H19.7854V34.8882H17.2854V33.0132Z" fill="#706F73"/>
<path d="M17.2854 33.0132H17.3242H18.0567C18.0567 33.0132 19.2573 33.0514 19.9967 34.2633H17.2854V33.0132Z" fill="#706F73"/>
<path d="M17.2854 28.0076H19.7854V31.1383H17.2854V28.0076Z" fill="#706F73"/>
<path d="M17.2854 31.7632H19.7854V33.0132H17.2854V31.7632Z" fill="#454547"/>
<path d="M17.2854 27.3882V28.0132H19.1604L19.8148 27.3588" fill="#666569"/>
<path d="M17.2854 34.2632H19.7854V35.5132H17.2854V34.2632Z" fill="#454547"/>
<path d="M20.1317 9.88824H22.0154L19.246 12.6582L18.6573 13.247V11.342L20.1317 9.88824Z" fill="#E8E6E6"/>
<path d="M17.2854 36.1382H19.7854V37.3882H17.2854V36.1382Z" fill="#808080"/>
<path d="M17.2854 31.1382H19.7854V31.7701H17.2854V31.1382Z" fill="#7C7B7B"/>
<path d="M18.5354 19.8414C18.9685 19.9607 19.3885 20.1432 19.7854 20.3832V11.3926C19.7879 10.8632 19.9073 10.3439 20.1317 9.88824H19.7854C18.4048 9.88824 17.2854 11.2357 17.2854 12.8976V18.1632H18.5354V19.8414Z" fill="#E8E6E6"/>
<path d="M19.7854 24.8882C19.7854 23.5076 18.666 22.3882 17.2854 22.3882V27.3882C18.666 27.3882 19.7854 26.2689 19.7854 24.8882Z" fill="#CFCFCF"/>
<path d="M18.5354 19.4076V18.0132H17.2854V22.3882C18.666 22.3882 19.7854 23.5076 19.7854 24.8882V19.8576C19.3885 19.6582 18.9685 19.507 18.5354 19.4076Z" fill="#706F73"/>
<path d="M19.7854 24.8882C19.7854 26.2689 18.666 27.3882 17.2854 27.3882H19.7854V24.8882Z" fill="#666569"/>
<path d="M1.6604 3.63824C1.6604 2.60262 2.49978 1.76324 3.5354 1.76324H4.7854V0.513245H3.5354C1.8104 0.51512 0.412275 1.91324 0.4104 3.63824V29.8882C0.412275 31.6132 1.8104 33.0114 3.5354 33.0132H12.7348L12.4029 34.342C11.5973 34.5682 11.0392 35.3014 11.0354 36.1382V37.3882C11.0354 37.7332 11.3154 38.0132 11.6604 38.0132H17.2854V36.7632H12.2854V36.1382C12.2854 35.7932 12.5654 35.5132 12.9104 35.5132H17.2854V34.2632H13.711L14.0235 33.0132H17.2854V31.7632H3.5354C2.49978 31.7632 1.6604 30.9239 1.6604 29.8882V28.0132H17.2854V26.7632H1.6604V3.63824Z" fill="black"/>
<path d="M6.0354 0.513245H7.28603V1.76324H6.0354V0.513245Z" fill="black"/>
<path d="M37.2854 0.513245H8.5354V1.76324H37.2854C38.321 1.76324 39.1604 2.60262 39.1604 3.63824V29.8882C39.1573 30.6801 38.6567 31.3845 37.9104 31.6482V12.3882C37.9085 10.6632 36.5104 9.26512 34.7854 9.26324H22.2854C20.5604 9.26512 19.1623 10.6632 19.1604 12.3882V37.3882C19.1623 39.1132 20.5604 40.5114 22.2854 40.5132H34.7854C36.5104 40.5114 37.9085 39.1132 37.9104 37.3882V32.9507C39.3642 32.652 40.4085 31.3726 40.4104 29.8882V3.63824C40.4085 1.91324 39.0104 0.51512 37.2854 0.513245ZM22.2854 10.5132H34.7854C35.821 10.5132 36.6604 11.3526 36.6604 12.3882H32.9104C32.5654 12.3882 32.2854 12.6682 32.2854 13.0132C32.2854 13.0257 32.2504 14.2632 31.6604 14.2632H25.4104C24.8204 14.2632 24.7854 13.0239 24.7854 13.0132C24.7854 12.6682 24.5054 12.3882 24.1604 12.3882H20.4104C20.4104 11.3526 21.2498 10.5132 22.2854 10.5132ZM36.6604 13.6382V35.5132H20.4104V13.6382H23.5935C23.7485 14.4932 24.2392 15.5132 25.4104 15.5132H31.6604C32.8316 15.5132 33.3223 14.4932 33.4773 13.6382H36.6604ZM34.7854 39.2632H22.2854C21.2498 39.2632 20.4104 38.4239 20.4104 37.3882V36.7632H36.6604V37.3882C36.6604 38.4239 35.821 39.2632 34.7854 39.2632Z" fill="black"/>
<path d="M2.9104 29.2632H4.1604V30.5132H2.9104V29.2632Z" fill="black"/>
<path d="M5.4104 29.2632H9.1604V30.5132H5.4104V29.2632Z" fill="black"/>
<path d="M26.0354 11.7632H31.0354V13.0132H26.0354V11.7632Z" fill="black"/>
<path d="M26.0354 37.3882H31.0354V38.6382H26.0354V37.3882Z" fill="black"/>
<path d="M4.2229 6.97762L4.87103 7.62637C4.70165 7.95074 4.56165 8.28949 4.45165 8.63825H3.5354C3.1904 8.63825 2.9104 8.91825 2.9104 9.26325V11.7632C2.9104 12.1082 3.1904 12.3882 3.5354 12.3882H4.45165C4.56165 12.737 4.70228 13.0757 4.87165 13.4001L4.2229 14.0489C3.97915 14.2926 3.97915 14.6889 4.2229 14.9326L5.99103 16.7007C6.2354 16.9445 6.63103 16.9445 6.87478 16.7007L7.52353 16.0526C7.8479 16.222 8.18665 16.362 8.5354 16.472V17.3882C8.5354 17.7332 8.8154 18.0132 9.1604 18.0132H11.6604C12.0054 18.0132 12.2854 17.7332 12.2854 17.3882V16.472C12.6342 16.362 12.9729 16.2214 13.2973 16.052L13.946 16.7007C14.1898 16.9445 14.586 16.9445 14.8298 16.7007L16.5979 14.9326C16.8417 14.6889 16.8417 14.2926 16.5979 14.0489L15.9498 13.4001C16.1192 13.0757 16.2592 12.737 16.3692 12.3882H17.2854C17.6304 12.3882 17.9104 12.1082 17.9104 11.7632V9.26325C17.9104 8.91825 17.6304 8.63825 17.2854 8.63825H16.3692C16.2592 8.28949 16.1185 7.95074 15.9492 7.62637L16.5979 6.97762C16.8417 6.73325 16.8417 6.33824 16.5979 6.09387L14.8298 4.32574C14.586 4.08199 14.1898 4.08199 13.946 4.32574L13.2973 4.97449C12.9729 4.80512 12.6342 4.66449 12.2854 4.55449V3.63824C12.2854 3.29324 12.0054 3.01324 11.6604 3.01324H9.1604C8.8154 3.01324 8.5354 3.29324 8.5354 3.63824V4.55449C8.18665 4.66449 7.8479 4.80512 7.52353 4.97449L6.87478 4.32574C6.6304 4.08199 6.2354 4.08199 5.99103 4.32574L4.2229 6.09387C3.97915 6.33762 3.97915 6.73387 4.2229 6.97762ZM5.5354 9.402C5.65978 8.85387 5.87728 8.33137 6.17728 7.85637C6.3329 7.60949 6.29728 7.287 6.0904 7.08075L5.5454 6.53574L6.4329 5.65199L6.9779 6.19699C7.18415 6.40387 7.50665 6.43949 7.75353 6.28387C8.22853 5.98387 8.75103 5.76637 9.29915 5.642C9.58353 5.577 9.7854 5.32387 9.7854 5.03199V4.26324H11.0354V5.03199C11.0354 5.32387 11.2373 5.577 11.5217 5.642C12.0698 5.76637 12.5923 5.98387 13.0673 6.28387C13.3141 6.43949 13.6367 6.40387 13.8429 6.19699L14.3879 5.65199L15.2717 6.53574L14.7267 7.08075C14.5198 7.287 14.4842 7.60949 14.6398 7.85637C14.9398 8.33137 15.1573 8.85387 15.2817 9.402C15.3467 9.68637 15.5998 9.88825 15.8917 9.88825H16.6604V11.1382H15.8917C15.5998 11.1382 15.3467 11.3401 15.2817 11.6245C15.1573 12.1726 14.9398 12.6951 14.6398 13.1701C14.4842 13.417 14.5198 13.7395 14.7267 13.9457L15.2717 14.4907L14.3879 15.3745L13.8429 14.8295C13.6367 14.6226 13.3141 14.587 13.0673 14.7426C12.5923 15.0426 12.0698 15.2601 11.5217 15.3845C11.2373 15.4495 11.0354 15.7026 11.0354 15.9945V16.7632H9.7854V15.9945C9.7854 15.7026 9.58353 15.4495 9.29915 15.3845C8.75103 15.2601 8.22853 15.0426 7.75353 14.7426C7.50665 14.587 7.18415 14.6226 6.9779 14.8295L6.4329 15.3745L5.54915 14.4907L6.09415 13.9457C6.30103 13.7395 6.33665 13.417 6.18103 13.1701C5.88103 12.6951 5.66353 12.1726 5.53915 11.6245C5.47415 11.3401 5.22103 11.1382 4.92915 11.1382H4.1604V9.88825H4.92915C5.22103 9.88825 5.47415 9.68637 5.53915 9.402H5.5354Z" fill="black"/>
<path d="M10.4104 13.6382C12.136 13.6382 13.5354 12.2389 13.5354 10.5132C13.5354 8.78762 12.136 7.38824 10.4104 7.38824C8.68478 7.38824 7.2854 8.78762 7.2854 10.5132C7.28728 12.2382 8.6854 13.6364 10.4104 13.6382ZM10.4104 8.63824C11.446 8.63824 12.2854 9.47762 12.2854 10.5132C12.2854 11.5489 11.446 12.3882 10.4104 12.3882C9.37478 12.3882 8.5354 11.5489 8.5354 10.5132C8.5354 9.47762 9.37478 8.63824 10.4104 8.63824Z" fill="black"/>
<path d="M15.4104 18.0132V18.9295C15.0617 19.0395 14.7229 19.1801 14.3985 19.3495L13.7498 18.7007C13.506 18.457 13.1098 18.457 12.866 18.7007L11.0979 20.4689C10.8542 20.7126 10.8542 21.1089 11.0979 21.3526L11.746 22.0014C11.5766 22.3257 11.4367 22.6645 11.3267 23.0132H10.4104C10.0654 23.0132 9.7854 23.2932 9.7854 23.6382V26.1382H11.0354V24.2632H11.8042C12.096 24.2632 12.3491 24.0614 12.4141 23.777C12.5385 23.2289 12.756 22.7064 13.056 22.2314C13.2117 21.9845 13.176 21.662 12.9692 21.4557L12.4242 20.9107L13.3079 20.027L13.8529 20.572C14.0592 20.7789 14.3817 20.8145 14.6285 20.6589C15.1035 20.3589 15.626 20.1414 16.1742 20.017C16.4585 19.952 16.6604 19.6989 16.6604 19.407V18.6382H17.2854V17.3882H16.0354C15.6904 17.3882 15.4104 17.6682 15.4104 18.0132Z" fill="black"/>
<path d="M17.2854 23.0132V21.7632C15.5604 21.7651 14.1623 23.1632 14.1604 24.8882H15.4104C15.4104 23.8526 16.2498 23.0132 17.2854 23.0132Z" fill="black"/>
<path d="M21.6604 24.8882C21.6604 28.6851 24.7385 31.7632 28.5354 31.7632C32.3323 31.7632 35.4104 28.6851 35.4104 24.8882C35.4104 21.0914 32.3323 18.0132 28.5354 18.0132C24.7404 18.0176 21.6648 21.0932 21.6604 24.8882ZM34.1604 24.8882C34.1604 27.9951 31.6423 30.5132 28.5354 30.5132C25.4285 30.5132 22.9104 27.9951 22.9104 24.8882C22.9104 21.7814 25.4285 19.2632 28.5354 19.2632C31.6404 19.267 34.1567 21.7832 34.1604 24.8882Z" fill="black"/>
<path d="M26.4773 23.1964C26.2335 22.9526 25.8373 22.9526 25.5935 23.1964L23.7185 25.0714C23.4748 25.3151 23.4748 25.7114 23.7185 25.9551L26.8435 29.0801C27.0873 29.3239 27.4835 29.3239 27.7273 29.0801L33.3523 23.4551C33.596 23.2114 33.596 22.8151 33.3523 22.5714L31.4773 20.6964C31.2335 20.4526 30.8373 20.4526 30.5935 20.6964L27.2854 24.0045L26.4773 23.1964ZM31.0354 22.022L32.0266 23.0132L27.2854 27.7545L25.0441 25.5132L26.0354 24.522L26.8435 25.3301C27.0873 25.5739 27.4835 25.5739 27.7273 25.3301L31.0354 22.022Z" fill="black"/>
<path d="M36.0354 3.01324H37.2854V4.26324H36.0354V3.01324Z" fill="black"/>
<path d="M26.6604 3.01324H34.7854V4.26324H26.6604V3.01324Z" fill="black"/>
</g>
<defs>
<clipPath id="clip0">
<rect width="40" height="40" fill="white" transform="translate(0.4104 0.513245)"/>
</clipPath>
</defs>
</svg>
